<svg width="58" height="58" viewBox="0 0 58 58" fill="none" xmlns="http://www.w3.org/2000/svg">
<path d="M49.5714 25.5714H47.5314C46.1257 17.9086 40.0914 11.8743 32.4286 10.4686V8.42857C32.4286 6.54286 30.8857 5 29 5C27.1143 5 25.5714 6.54286 25.5714 8.42857V10.4686C17.9086 11.8743 11.8743 17.9086 10.4686 25.5714H8.42857C6.54286 25.5714 5 27.1143 5 29C5 30.8857 6.54286 32.4286 8.42857 32.4286H10.4686C11.8743 40.0914 17.9086 46.1257 25.5714 47.5314V49.5714C25.5714 51.4571 27.1143 53 29 53C30.8857 53 32.4286 51.4571 32.4286 49.5714V47.5314C40.0914 46.1257 46.1257 40.0914 47.5314 32.4286H49.5714C51.4571 32.4286 53 30.8857 53 29C53 27.1143 51.4571 25.5714 49.5714 25.5714ZM32.4286 42.2686V37.5714L29 32.4286L25.5714 37.5714V42.2686C20.7714 41.0171 16.9829 37.2457 15.7314 32.4286H20.4286L25.5714 29L20.4286 25.5714H15.7314C16.9829 20.7714 20.7543 16.9829 25.5714 15.7314V20.4286L29 25.5714L32.4286 20.4286V15.7314C37.2286 16.9829 41.0171 20.7543 42.2686 25.5714H37.5714L32.4286 29L37.5714 32.4286H42.2686C41.0171 37.2286 37.2457 41.0171 32.4286 42.2686Z" fill="black"/>
</svg>
