<svg width="36" height="36" viewBox="0 0 36 36" fill="none" xmlns="http://www.w3.org/2000/svg">
<g clip-path="url(#clip0_2865_30)">
<path d="M32.52 10.16V25.87L18 34.39L3.48 25.87V10.15L18 1.62999L32.52 10.16ZM18 -0.0100098L2 9.58999V26.42L18 36.02L34 26.42V9.58999L18 -0.0100098Z" fill="black"/>
<path d="M18 1.16L3 10.14V25.86L18 34.84L33 25.86V10.14L18 1.16Z" fill="url(#paint0_linear_2865_30)"/>
<path d="M18 18L3 25.86L18 34.84L33 25.86L18 18Z" fill="url(#paint1_linear_2865_30)"/>
<path d="M18 18L3 25.86L18 34.84V18Z" fill="url(#paint2_linear_2865_30)"/>
<path opacity="0.7" d="M18 1.16L3 10.14L18 18L33 10.14L18 1.16Z" fill="url(#paint3_linear_2865_30)"/>
<path opacity="0.6" d="M18 1.16V18L33 10.14L18 1.16Z" fill="url(#paint4_linear_2865_30)"/>
<path d="M18 18L3 25.72V10L18 18Z" fill="url(#paint5_linear_2865_30)"/>
<path d="M18 18L33 25.86V10.14L18 18Z" fill="url(#paint6_linear_2865_30)"/>
<path d="M18 2.89999L31.5 10.99V24.99L18 33.08L4.5 24.99V10.99L18 2.89999ZM18 1.15999L3 10.16V25.87L18 34.87L33 25.87V10.15L18 1.14999V1.15999Z" fill="url(#paint7_linear_2865_30)"/>
</g>
<defs>
<linearGradient id="paint0_linear_2865_30" x1="18" y1="34.84" x2="18" y2="1.16" gradientUnits="userSpaceOnUse">
<stop stop-color="#FFE664"/>
<stop offset="1" stop-color="#FF8B81"/>
</linearGradient>
<linearGradient id="paint1_linear_2865_30" x1="19" y1="33" x2="19.5002" y2="21.7336" gradientUnits="userSpaceOnUse">
<stop stop-color="#FA736A"/>
<stop offset="1" stop-color="#FFD977"/>
</linearGradient>
<linearGradient id="paint2_linear_2865_30" x1="12" y1="25" x2="19.968" y2="27.7567" gradientUnits="userSpaceOnUse">
<stop stop-color="#FFA26D" stop-opacity="0"/>
<stop offset="1" stop-color="#FB6055"/>
</linearGradient>
<linearGradient id="paint3_linear_2865_30" x1="24.5" y1="6.5" x2="17.3018" y2="18.3334" gradientUnits="userSpaceOnUse">
<stop stop-color="#FA736A" stop-opacity="0.5"/>
<stop offset="1" stop-color="#FFDA78"/>
</linearGradient>
<linearGradient id="paint4_linear_2865_30" x1="18" y1="7.5" x2="24.3846" y2="10.0999" gradientUnits="userSpaceOnUse">
<stop stop-color="#FB6055"/>
<stop offset="1" stop-color="#FFD977"/>
</linearGradient>
<linearGradient id="paint5_linear_2865_30" x1="5" y1="11.5" x2="11" y2="21.5" gradientUnits="userSpaceOnUse">
<stop stop-color="#FB6055"/>
<stop offset="1" stop-color="#FFD977"/>
</linearGradient>
<linearGradient id="paint6_linear_2865_30" x1="30" y1="13.5" x2="26" y2="21.5" gradientUnits="userSpaceOnUse">
<stop stop-color="#FB6055"/>
<stop offset="1" stop-color="#FFB45C"/>
</linearGradient>
<linearGradient id="paint7_linear_2865_30" x1="18" y1="1.14999" x2="18" y2="34.87" gradientUnits="userSpaceOnUse">
<stop stop-color="#FBEBD9"/>
<stop offset="0.520833" stop-color="#FFBC6D"/>
<stop offset="1" stop-color="#FEF0C9"/>
</linearGradient>
<clipPath id="clip0_2865_30">
<rect width="36" height="36" fill="white"/>
</clipPath>
</defs>
</svg>
